<svg width="1280" height="1861" fill="none" xmlns="http://www.w3.org/2000/svg" preserveAspectRatio="none"><path d="M65.85 492.039C79.432 591.73 28.129 583.667.78 567.174V1791.33c0 239.23-13.002 135.56 0 202.94 7.89 40.9 50.926-157.12 39.609-202.94-11.317-45.81-8.488-131.94 41.024-150.27 49.511-18.33 56.584-60.47 82.047-113.62 25.463-53.14 90.535-157.6 248.971-76.97 158.436 80.64 263.117 7.33 338.092-65.97 148.534-145.22 400.458.71 470.468 125.12 36.74 65.28-63.48 399.1 0 430.23 31.72 15.55 60.01 301.38 60.01-15.55V471.88c-.94 13.439-7.92 36.285-28.29 20.159-59.98-39.584-35.37-160.656-15.56-216.244 10.84-53.145 14.43-177.76-58-251.062-85.18-86.21-335.839 80.633-481.251 80.633-158.867 0-235.958-47.647-330.736-91.629-94.779-43.981-169.754 31.154-199.46 91.629-29.707 60.475-31.122 84.298-76.39 111.787-89.12 42.149-42.438 150.271-25.462 274.886Z" fill="#FEF3E4"/></svg>