<svg width="768" height="1512" fill="none" xmlns="http://www.w3.org/2000/svg" preserveAspectRatio="none"><path d="M-34.212 275.273c9.927 55.774-27.573 51.263-47.564 42.035v684.862c0 133.84-9.504 476.2 0 513.9 5.768 22.88 55.836-94.93 47.564-120.56-8.272-25.63-24.816-119.35 11.374-129.6s41.36-33.83 59.973-63.56c18.612-29.74 66.176-88.17 181.985-43.06 115.809 45.11 192.325 4.1 247.128-36.91 108.57-81.25 292.712.4 343.888 70 26.855 36.52-46.404 217.07 0 234.48 23.184 8.7 43.864 168.61 43.864-8.7V263.996c-.689 7.518-5.79 20.3-20.68 11.277-43.842-22.145-25.85-89.879-11.374-120.978 7.927-29.732 10.547-99.449-42.394-140.458-62.263-48.23-245.48 45.11-351.769 45.11-116.124 0-172.473-26.656-241.751-51.262C116.753-16.92 61.951 25.115 40.237 58.947 18.523 92.781 17.489 106.11-15.6 121.487c-65.142 23.581-31.02 84.07-18.612 153.786Z" fill="#FEF3E4"/></svg>