<svg width="320" height="1337" fill="none" xmlns="http://www.w3.org/2000/svg" preserveAspectRatio="none"><path d="M14.85 105.127c3.422 21.3-9.504 19.577-16.394 16.053v261.548c0 51.113-3.276 938.752 0 953.152 1.988 8.74 19.246-36.25 16.394-46.04-2.85-9.79-8.553-45.58 3.92-49.49 12.475-3.92 14.257-12.93 20.672-24.28 6.415-11.35 22.81-33.67 62.727-16.44 39.917 17.22 66.291 1.56 85.18-14.1 37.422-31.03 100.893.15 118.532 26.73 9.256 13.95-15.995 82.9 0 89.55 7.991 3.32 15.119 64.39 15.119-3.32V100.82c-.238 2.871-1.996 7.752-7.128 4.307-15.111-8.457-8.91-34.325-3.92-46.202 2.732-11.354 3.635-37.98-14.613-53.64-21.461-18.42-84.612 17.227-121.248 17.227-40.025 0-59.448-10.18-83.327-19.577-23.879-9.397-42.768 6.656-50.252 19.577-7.485 12.92-7.841 18.01-19.246 23.884-22.454 9.005-10.692 32.106-6.415 58.731Z" fill="#FEF3E4"/></svg>