<svg width="768" height="622" fill="none" xmlns="http://www.w3.org/2000/svg" preserveAspectRatio="none"><path d="M29.935 591.653c0 13.815-19.025 30.9-30.935 30.333V0h768.867v202.724c.3 121.033 0 354.391 0 376.315 0 13.74-20.97 7.954-37.984-14.158-17.013-22.112 14.462-92.699 17.014-113.11 2.552-20.411-5.104-62.934-84.217-114.812-79.114-51.878-194.806-5.953-256.055 24.663-61.249 30.617-113.312-11.906-196.678-37.42-83.367-25.513-113.991 15.309-125.05 37.42-11.059 22.112-10.888 81.644-34.707 90.149-23.819 8.504-33.176 31.467-27.222 64.634 5.955 33.168 6.967 57.388 6.967 75.248Z" fill="#FEF3E4"/></svg>