<svg width="1280" height="1036" fill="none" xmlns="http://www.w3.org/2000/svg" preserveAspectRatio="none"><path d="M51.5 985c0 23-31.673 51.44-51.5 50.5V0h1280v337.5c.5 201.5 0 590 0 626.5 0 22.875-34.91 13.242-63.23-23.57-28.33-36.812 24.07-154.329 28.32-188.31 4.25-33.98-8.5-104.773-140.2-191.141-131.711-86.367-324.314-9.911-426.281 41.06-101.966 50.971-188.64-19.822-327.427-62.298C212.394 497.265 161.411 565.227 143 602.039S124.874 737.962 85.22 752.12c-39.653 14.159-55.231 52.387-45.318 107.606C49.816 914.944 51.5 955.267 51.5 985Z" fill="#FEF3E4"/></svg>