<svg width="320" height="461" fill="none" xmlns="http://www.w3.org/2000/svg" preserveAspectRatio="none"><path d="M12.873 447.869c0 5.753-7.917 12.867-12.873 12.631V0h319.944v84.414c.125 50.398 0 349.074 0 358.203 0 5.721-8.725 3.312-15.805-5.895-7.08-9.208 6.018-38.6 7.08-47.1 1.061-8.499-2.124-26.205-35.045-47.807-32.921-21.602-81.064-2.479-106.551 10.27-25.487 12.748-47.152-4.958-81.843-15.582-34.69-10.624-47.434 6.375-52.036 15.582-4.602 9.207-4.53 33.996-14.442 37.537-9.912 3.542-13.806 13.103-11.328 26.914 2.478 13.811 2.899 23.896 2.899 31.333Z" fill="#FEF3E4"/></svg>