<svg aria-hidden="true" xmlns="http://www.w3.org/2000/svg"><defs><symbol id="logo" viewBox="0 0 63 32"><path d="M37.207 15.991c0 .255-.007.509 0 .764.078 2.588-.648 4.92-1.814 7.119-.307.55-.675 1.291-1.016 2.048l-.085.21c-.278.633-.663 1.078-1.264 1.337-.336.144-.647.394-.927.653-1.293 1.189-2.761 2.04-4.33 2.64-1.043.398-2.116.748-3.249.733-.338-.005-.676.111-1.014.112s-.677-.121-1.012-.105c-1.46.07-2.813-.431-4.156-.955-1.466-.572-2.761-1.476-3.978-2.554-1.719-1.52-2.943-3.434-3.843-5.626-.485-1.181-.88-2.401-.992-3.711-.018-.217-.083-.433-.14-.644-.409-1.471-.174-2.913.079-4.378.193-1.121.392-2.227.769-3.291.995-2.814 2.575-5.118 4.763-6.928A13.031 13.031 0 0 1 21.085.583c2.547-.457 5.034-.128 7.447.939 1.204.534 2.34 1.211 3.332 2.107.926.836 1.761 1.814 2.55 2.813.714.906 1.221 1.985 1.675 3.085.707 1.72 1.169 3.5 1.122 5.412-.01.353-.003.703-.003 1.053zm-.978-3.484c-.071-.601-.114-1.298-.246-1.973-.376-1.944-1.388-3.462-2.736-4.701-.765-.705-1.6-1.317-2.422-1.94-.278-.211-.602-.405-.927-.47-.836-.171-1.682-.332-2.529-.379-1.471-.084-2.792-.506-3.903-1.644-.817-.837-1.707-.918-2.557-.181-.963.835-2.059 1.324-3.176 1.809-.819.356-1.607.803-2.394 1.246-.658.37-1.041.948-1.032 1.822.005.49-.197.901-.605 1.172-.34.228-.667.479-.98.754-.87.762-1.548 1.621-1.695 2.954-.116 1.054-.402 2.096-1.051 2.965a2.1 2.1 0 0 0-.387 1.034l-.001.008c-.059.788-.035 1.585-.018 2.378.005.212.088.439.185.627.224.441.468.869.731 1.283.637.986 1.191 1.996 1.319 3.249.124 1.213.651 2.202 1.542 2.956 1.291 1.094 2.535 2.255 3.845 3.32.704.573 1.458 1.076 2.386 1.192s1.839.398 2.672.918c.174.105.366.17.563.192 1.175.141 2.262-.183 3.294-.794.323-.192.656-.366.991-.533.807-.402 1.7-.666 2.403-1.225.781-.624 1.616-.9 2.513-1.074.387-.076.705-.253.957-.574.3-.38.579-.782.893-1.15.325-.379.558-.783.615-1.324.087-.829.406-1.56.81-2.263.684-1.188 1.074-2.501 1.276-3.895.053-.366.083-.676-.08-.998-.471-.93-.279-1.985-.428-2.975-.076-.536.098-1.121.171-1.787l-.002.001zm-5.67-9.287c-.199-.244-.262-.355-.353-.424-.162-.125-.34-.227-.513-.336-1.479-.927-3.098-1.378-4.752-1.701-.333-.065-.682-.036-1.021-.022-.088.003-.193.099-.249.185-.026.039.033.176.081.242.353.472.823.838 1.368 1.058l.021.008a8.458 8.458 0 0 0 2.909.607c.421.013.84.102 1.258.165.357.056.714.124 1.251.217zM17.996 29.932c-.993-.903-1.863-1.709-2.747-2.495a94.042 94.042 0 0 0-2.067-1.771l-.164-.133c-.084-.071-.217-.069-.401-.121.903 1.686 3.917 4.248 5.38 4.52zM11.309 8.869c.599-.509 1.153-1.045 1.761-1.488.852-.618 1.178-1.386.977-2.705-.605.55-1.036 1.213-1.503 1.816-.493.635-.858 1.392-1.27 2.103-.031.058.02.171.035.274zm20.186 19.245c-.559-.042-1.121.067-1.471.403-.665.636-1.455.955-2.26 1.273-.423.167-.821.412-1.219.646-.055.032-.065.204-.054.305.004.035.153.09.214.067.722-.274 1.469-.495 2.153-.861.839-.447 1.626-1.015 2.429-1.541.084-.052.128-.176.206-.292zm-21.332-8.821c-.161.526-.129.818-.028 1.128.28.861.451 1.77.955 2.522.187.279.225.903.57.769.304-.118-.052-.611-.072-.944-.08-1.273-.681-2.299-1.425-3.475zm5.416-15.847.075.126c.417-.172.838-.335 1.251-.52A95.524 95.524 0 0 0 20.7 1.354l-1.111.474c.18-.085.345-.22.498-.357.042-.039.035-.17.022-.252-.007-.036-.091-.076-.14-.078a.8.8 0 0 0-.252.047l.006-.002c-1.213.383-2.356.95-3.45 1.639-.256.161-.464.411-.693.62zm21.294 13.667c.073-.095.131-.134.135-.178.118-1.386-.013-2.761-.184-4.131-.008-.069-.095-.167-.153-.176-.065-.009-.165.05-.204.114a.766.766 0 0 0-.116.344c-.065 1.13.003 2.265.199 3.376.039.224.206.421.323.651zM9.87 13.287c.473-.2.544-.564.595-.892.124-.801.433-1.571.33-2.418-.494 1.01-.933 2.034-.925 3.31zm11.452 17.572c-1.061-.522-1.348-.577-2.292-.43.4.169.76.437 1.123.441.377.007.787.52 1.17-.011z"/><path d="M23.51 20.476c-.725-.014-1.224-.353-1.593-1.005-.343-.609-.915-.925-1.439-1.3-.66-.472-1.197-1.006-1.349-1.963-.106-.65.017-1.213.254-1.726a2.82 2.82 0 0 1 .918-1.076l.009-.006c.404-.276.739-.537.926-1.047.211-.588.743-.623 1.215-.729.444-.099.895-.163 1.333-.287.599-.17 1.142-.118 1.579.401.338.402.733.691 1.173.935.457.253.609.55.465 1.08-.097.359-.003.604.118.891.132.313.268.631.358.963.301 1.1-.046 2.027-.974 2.517-.575.304-1.015.709-1.159 1.42-.057.287-.218.451-.445.524-.459.15-.925.273-1.388.407zm3.045-4.614c.015-1.94-1.306-3.49-3.024-3.492-1.541 0-3.092 1.161-3.152 3.385-.048 1.78 1.285 3.438 3.022 3.444 2.115.012 3.113-1.623 3.154-3.337zm-6.193 1.853c0-.248.022-.375-.003-.49-.228-1.054-.375-2.096.141-3.112.037-.072-.049-.223-.078-.337-.101.037-.224.044-.3.114-.854.78-1.234 2.652.24 3.825zm3.17-5.832c.357.146.562.248.775.313.787.231 1.458.648 1.926 1.416.091.151.211.376.387.203.093-.091.124-.372.07-.513-.073-.187-.238-.42-.397-.457-.432-.101-.669-.449-.951-.753-.473-.505-1.003-.665-1.809-.21zm-.048 7.633-.01-.074c-.227 0-.456-.022-.679.009-.115.016-.219.124-.328.191.099.098.185.251.3.283.609.171 1.224.208 1.825-.054.103-.045.217-.104.282-.196a.512.512 0 0 0 .064-.322c-.005-.039-.147-.098-.217-.086-.413.072-.824.163-1.234.248l-.002.001zm3.118-1.989c.423-.087.611-.353.636-.759a7.644 7.644 0 0 0-.015-1.059l.002.028c-.007-.09-.121-.17-.185-.256-.094.099-.285.232-.268.291.172.594-.187 1.127-.17 1.754v.001zm3.865 2.685c-.024.013-.122.105-.229.117-.096.013-.237-.023-.296-.099-.3-.377-.592-.764-.861-1.17-.071-.106-.099-.392-.059-.416.131-.081.39-.166.447-.095.34.417.638.875.946 1.324.029.045.02.122.052.338zm-14.383 3.265c.157.014.467.024.769.082.076.015.176.179.176.277s-.087.266-.163.287c-.588.163-1.173.202-1.693-.235a.29.29 0 0 1-.065-.108l-.001-.002a.315.315 0 0 1-.017-.104l.001-.027v.001c.011-.065.103-.157.163-.161.226-.021.453-.009.829-.009zM34.508 9.711l.222.136c-.063.126-.101.328-.193.364a8.315 8.315 0 0 1-1.3.412c-.127.028-.312-.111-.428-.225-.135-.133-.055-.421.116-.451.501-.085 1.006-.151 1.584-.236zM19.543 26.279c.235.122.432.157.528.287.263.363.504.746.721 1.145a.307.307 0 0 1-.166.45l-.002.001c-.098.031-.274-.058-.346-.156-.261-.346-.524-.74-.765-1.15l-.032-.059c-.056-.099.031-.3.063-.519zm9.227-15.147c.015-.111 0-.238.047-.287.063-.064.199-.118.265-.082.089.047.147.177.208.28.17.284.339.569.501.861.073.131.17.27.176.41a.576.576 0 0 1-.153.388c-.049.05-.251.018-.3-.052-.325-.46-.715-.89-.744-1.516zm1.012-4.887c-.071.47-.098.816-.18 1.147a.963.963 0 0 1-.281.453l-.001.001c-.093.084-.256.072-.387.102-.01-.137-.049-.279-.026-.409.069-.4.16-.795.242-1.192.007-.031.005-.064.013-.094.065-.24.205-.422.429-.323.113.05.166.27.191.315zM23.713 9.3c.197.027.453.042.697.108.084.022.207.189.192.261-.025.129-.121.299-.223.337a.752.752 0 0 1-.501.001l.005.002c-.281-.099-.544-.133-.825-.002-.184.086-.358-.005-.407-.209-.066-.274.119-.406.327-.445.222-.041.451-.035.733-.052zm4.39 13.495c-.08.389-.14.729-.227 1.063-.017.065-.141.153-.193.139-.093-.026-.225-.108-.244-.193a1.422 1.422 0 0 1-.012-.572l-.001.009c.065-.342.131-.666.007-1.014-.059-.167-.042-.434.186-.433.123 0 .3.169.355.309.09.223.096.487.131.693zm-3.464-.1c-.046.091-.069.199-.129.245-.37.285-.742.569-1.132.818-.1.063-.274.024-.402-.018-.187-.061-.225-.334-.071-.444.328-.242.75-.534 1.18-.815l.116-.071c.07-.046.211.003.302.054.062.035.088.146.135.231zM19.916 4.436c.06.039.174.074.189.135.147.603.289 1.208.406 1.819.033.17-.17.264-.305.162-.426-.319-.69-1.499-.442-1.992.025-.049.088-.074.152-.125zm5.259 1.713c-.128-.095-.266-.144-.285-.225-.02-.089.046-.242.118-.313.312-.31.639-.603.979-.875.114-.089.352-.153.44-.083.208.162.098.392-.046.559-.194.226-.387.464-.611.647-.172.137-.392.196-.594.291zm-8.093 3.187-.311.327c-.089-.106-.22-.196-.257-.323-.104-.322-.24-.831-.359-1.346l-.034-.172c-.016-.071.035-.214.088-.238.086-.039.229-.055.294 0 .129.106.276.248.319.407.111.415.17.849.261 1.344zm-3.407 8.372c-.286.581-.503 1.178-1.034 1.495-.089.053-.287-.015-.383-.1-.163-.144 0-.263.078-.385.25-.382.481-.781.746-1.148.069-.095.242-.141.36-.128.08.008.146.16.233.266zm3.225.049c.149.096.257.124.277.187.033.103.051.266 0 .338-.082.114-.221.18-.342.257-.312.199-.62.409-.945.579a.391.391 0 0 1-.367-.035l.001.001c-.182-.144-.118-.374.028-.475.445-.31.914-.582 1.347-.852zm16.142-2.635c-.115.287-.276.722-.468 1.139-.029.065-.214.1-.293.061-.072-.037-.152-.2-.137-.289.076-.464.161-.929.291-1.377.039-.137.217-.261.355-.307.05-.016.183.196.246.327.036.072.007.185.007.445zm-19.457-3.459c.505.504.445 1.189.502 1.821.01.118-.121.285-.226.37-.055.044-.278-.027-.283-.068-.063-.458-.13-1.12-.181-1.786l-.008-.137c-.004-.055.114-.121.197-.2zm11.806 15.611c.085.025.168.055.249.091.304.157.609.309.905.481.14.082.281.183.383.313.117.15-.016.44-.18.4-.551-.133-1.089-.317-1.5-.775-.061-.067-.059-.237-.04-.349.012-.063.118-.107.183-.161zm-6.7-15.427c.029.101.129.259.093.357a25.331 25.331 0 0 1-.616 1.54c-.027.063-.141.118-.209.108-.059-.008-.14-.101-.156-.171-.115-.565.249-1.576.655-1.831.042-.026.108-.003.233-.003zm15.744 8.576c-.063-.045-.195-.099-.264-.204-.027-.042.061-.233.137-.294.34-.274.685-.535 1.046-.771.097-.063.299-.067.371.004.065.065.075.313.016.404-.302.468-.682.825-1.305.861zm-2.092 4.031c-.261-.03-.375-.033-.483-.06-.046-.011-.115-.072-.116-.111l-.001-.028c0-.083.022-.16.061-.227l-.001.002a.423.423 0 0 1 .209-.145l.003-.001c.403-.135.806-.27 1.215-.379.089-.023.276.041.287.098a.879.879 0 0 1-.052.43c-.025.071-.125.131-.201.157-.35.106-.701.202-.92.265zm-12.128-3.235c-.029.137-.076.439-.167.725-.022.071-.199.139-.279.113s-.176-.174-.173-.267c.008-.528.032-1.057.08-1.582.01-.115.141-.215.216-.323.091.106.236.199.259.321.051.272.041.558.064 1.013zM39.09 4.696c0-1.119.244-1.967.73-2.544.492-.584 1.122-.876 1.891-.876s1.379.251 1.833.756c.458.504.688 1.309.688 2.416s-.244 1.942-.73 2.508c-.487.565-1.136.848-1.949.848-.702 0-1.277-.224-1.724-.673-.233-.234-.415-.556-.548-.968-.127-.418-.191-.907-.191-1.466zm2.595-3.328c-.558 0-1.017.276-1.376.829-.354.553-.531 1.365-.531 2.434s.169 1.85.506 2.342c.337.492.785.738 1.343.738.564 0 1.023-.277 1.376-.83.359-.56.539-1.367.539-2.425 0-1.063-.172-1.844-.514-2.342-.338-.498-.786-.746-1.344-.746zm3.98 6.398h-.689V1.312h.688v2.969h2.695V1.312h.688v6.454h-.688V4.373h-2.695v3.393zm6.921 0h-.108l.721-6.454h.274l1.741 5.965 1.732-5.965h.274l.721 6.454h-.688l-.572-5.163-1.501 5.163h-.522L53.14 2.668l-.555 5.098zm9.95-6.453a.651.651 0 0 1 .157.452c0 .153-.031.31-.091.47l-1.484 3.346v2.185h-.688V5.784l-1.659-4.471h.705l1.584 4.158 1.443-3.236c.061-.154.091-.313.091-.479s-.042-.295-.124-.387l.065-.056zM1.169 9.462c.428-.022.848-.033 1.256-.033.419 0 .857.048 1.315.146.519.114.979.305 1.392.563l-.018-.011c.458.261.842.601 1.155 1.024.321.411.579.959.775 1.64s.292 1.511.292 2.486c0 .975-.146 1.853-.438 2.632-.283.769-.673 1.36-1.169 1.771-.965.801-2.129 1.202-3.493 1.202-.477 0-.979-.022-1.505-.065H0V9.462h1.169zm.044 11.226c.204.022.463.033.775.033s.545-.006.701-.017c.156-.01.37-.054.643-.129.29-.093.542-.208.775-.35l-.016.009c.234-.141.477-.346.731-.617a4.03 4.03 0 0 0 .662-.968l.011-.024c.418-.888.628-2.047.628-3.476 0-1.019-.112-1.896-.336-2.632-.224-.748-.483-1.3-.775-1.657a3.077 3.077 0 0 0-1.02-.837l-.017-.008c-.409-.216-.735-.341-.98-.374a6.338 6.338 0 0 0-.797-.049h-.052.003c-.321 0-.633.016-.935.049V20.69zm38.114.13h-.19V9.446h.496l6.079 10.511V9.446h.19v11.372h-1.066l-5.509-9.424v9.424zM54.9 9.446h.19v6.498c0 1.701-.302 2.952-.906 3.753-.604.79-1.393 1.186-2.367 1.186-.614 0-1.135-.059-1.563-.179a3.234 3.234 0 0 1-1.213-.699c-.779-.671-1.169-2.024-1.169-4.061V9.445h1.213v6.482c0 1.971.268 3.287.803 3.948.273.325.555.547.848.666.302.119.663.178 1.081.178.935 0 1.68-.379 2.236-1.137.565-.769.847-1.987.847-3.655V9.445zm5.175 11.372h-1.213V9.608h-2.527v-.162h6.282v.162h-2.542v11.21z"/></symbol><symbol id="bg1" viewBox="0 0 40 32"><path fill="#fef3e4" d="M1.591 30.425c0 .71-.978 1.589-1.591 1.56V0h39.537v10.425c.015 6.224 0 18.224 0 19.351 0 .707-1.078.409-1.953-.728s.743-4.767.875-5.817-.263-3.236-4.331-5.904c-4.068-2.668-10.017-.306-13.167 1.268s-5.827-.612-10.114-1.924c-4.287-1.312-5.862.787-6.43 1.924s-.56 4.198-1.785 4.636c-1.225.437-1.706 1.618-1.4 3.324s.358 2.951.358 3.869z"/></symbol><symbol id="bg2" viewBox="0 0 22 32"><path fill="#fef3e4" d="M1.132 8.461c.234 1.714-.649 1.576-1.119 1.292v21.049c0 4.114-.224 2.331 0 3.49.136.703.876-2.702.681-3.49s-.146-2.269.705-2.584.973-1.04 1.411-1.954c.438-.914 1.557-2.71 4.281-1.323s4.524.126 5.814-1.134c2.554-2.497 6.886.012 8.09 2.151.632 1.122-1.092 6.863 0 7.398.545.267 1.032 5.182 1.032-.267V8.115c-.016.231-.136.624-.486.347-1.031-.681-.608-2.763-.268-3.718.186-.914.248-3.057-.997-4.317-1.465-1.482-5.775 1.387-8.275 1.387-2.732 0-4.057-.819-5.687-1.576s-2.919.536-3.43 1.576c-.511 1.04-.535 1.45-1.314 1.922-1.532.725-.73 2.584-.438 4.727z"/></symbol><symbol id="social-facebook" viewBox="0 0 32 32"><path d="M22.512.006 18.896 0c-4.064 0-6.69 3.092-6.69 7.876v3.63H8.568c-.314 0-.568.294-.568.654v5.26c0 .36.254.652.568.652h3.638v13.276c0 .36.254.652.568.652h4.746c.314 0 .568-.292.568-.652V18.072h4.252c.314 0 .568-.292.568-.652l.002-5.26c0-.174-.06-.34-.166-.462a.535.535 0 0 0-.402-.192h-4.254V8.428c0-1.48.308-2.23 1.986-2.23h2.438c.314 0 .568-.294.568-.654V.66c0-.36-.254-.652-.568-.654z"/></symbol><symbol id="social-twitter" viewBox="0 0 32 32"><path d="M32 5.44c-1.097.551-2.37.957-3.712 1.152l-.068.008c1.36-.908 2.398-2.336 2.886-4.054a12.155 12.155 0 0 1-4.077 1.758l-.083.016C25.742 2.888 24.026 2 22.154 2c-3.632 0-6.556 3.296-6.556 7.336 0 .58.044 1.14.152 1.672-5.454-.298-10.28-3.22-13.522-7.672a7.953 7.953 0 0 0-.898 3.697v.011-.001c0 2.54 1.17 4.79 2.914 6.094a5.942 5.942 0 0 1-2.988-.918l.024.014v.08c0 3.566 2.274 6.526 5.256 7.208a5.94 5.94 0 0 1-1.72.24c-.42 0-.844-.026-1.242-.124.85 2.904 3.262 5.04 6.13 5.108-2.232 1.952-5.066 3.128-8.134 3.128-.538 0-1.054-.028-1.57-.1 2.906 2.094 6.35 3.29 10.064 3.29 12.072 0 18.672-11.18 18.672-20.868 0-.324-.01-.638-.024-.948a14.157 14.157 0 0 0 3.253-3.744L32 5.439z"/></symbol><symbol id="social-instagram" viewBox="0 0 32 32"><path d="M16.316 32h-.32l-.461.001c-2.329 0-4.64-.072-6.933-.212l.314.015c-2.066-.126-3.952-.84-5.454-2.064-1.45-1.182-2.44-2.78-2.942-4.75-.44-1.716-.46-3.4-.484-5.026C.02 18.794.004 17.41 0 16.004c.004-1.414.02-2.8.036-3.968.022-1.628.046-3.31.484-5.026.5-1.97 1.492-3.568 2.94-4.75C4.966 1.036 6.852.32 8.92.196c2.252-.138 4.57-.2 7.084-.196l.443-.001c2.335 0 4.653.071 6.952.212l-.316-.015c2.066.124 3.952.84 5.454 2.064 1.45 1.182 2.44 2.78 2.944 4.75.436 1.716.46 3.4.48 5.026.018 1.17.034 2.554.038 3.96v.006c-.004 1.408-.02 2.792-.036 3.96-.022 1.63-.046 3.312-.482 5.028-.504 1.97-1.494 3.568-2.944 4.75-1.502 1.224-3.388 1.94-5.454 2.064-1.968.125-4.268.196-6.585.196h-.193.01zm-.32-2.5.48.001c2.271 0 4.526-.069 6.763-.206l-.307.015c1.56-.096 2.916-.602 4.026-1.508 1.026-.836 1.734-1.99 2.1-3.43.364-1.428.386-2.96.406-4.444.016-1.16.032-2.534.036-3.928-.004-1.394-.02-2.768-.036-3.93-.02-1.48-.04-3.014-.406-4.44-.368-1.44-1.074-2.596-2.1-3.432-1.11-.906-2.464-1.412-4.026-1.508-1.93-.122-4.186-.191-6.457-.191l-.5.001h.026l-.485-.001c-2.269 0-4.522.069-6.756.206l.307-.015c-1.56.096-2.916.602-4.026 1.508-1.026.836-1.734 1.99-2.1 3.43-.364 1.428-.386 2.96-.406 4.442a364.21 364.21 0 0 0-.036 3.932c.004 1.39.02 2.766.036 3.926.02 1.484.04 3.016.406 4.444.366 1.44 1.074 2.594 2.1 3.43 1.11.906 2.464 1.412 4.026 1.508 2.2.134 4.468.196 6.928.19zm-.06-5.688A7.82 7.82 0 0 1 8.126 16a7.82 7.82 0 0 1 7.814-7.812A7.82 7.82 0 0 1 23.75 16a7.82 7.82 0 0 1-7.812 7.812zm0-13.124A5.32 5.32 0 0 0 10.626 16a5.32 5.32 0 0 0 5.314 5.312A5.32 5.32 0 0 0 21.25 16a5.32 5.32 0 0 0-5.312-5.312zm8.69-5-.061-.001a1.876 1.876 0 0 0 0 3.752l.064-.001h-.003a1.877 1.877 0 0 0 .003-3.75h-.003z"/></symbol><symbol id="prog-people" viewBox="0 0 32 32"><path d="M11.887 0C8.594 0 5.913 3.077 5.913 6.856s2.682 6.856 5.975 6.856 5.975-3.077 5.975-6.856S15.18 0 11.888 0zm0 12.562c-2.749 0-4.979-2.566-4.979-5.714 0-3.146 2.236-5.713 4.979-5.713 2.749 0 4.979 2.566 4.979 5.713 0 3.149-2.236 5.714-4.979 5.714zm12.238-9.717c-2.474 0-4.484 2.307-4.484 5.146s2.01 5.146 4.484 5.146c2.476 0 4.485-2.307 4.485-5.146s-2.01-5.146-4.485-5.146zm0 9.155c-1.924 0-3.488-1.795-3.488-4.003s1.564-4.003 3.488-4.003c1.925 0 3.489 1.795 3.489 4.003S26.05 12 24.125 12z"/><path d="M32.148 20.678c-.452-3.126-2.145-5.761-5.029-7.142 0 0-1.276 1.107-2.994 1.073-1.875-.042-2.994-1.073-2.994-1.073s-1.393.596-2.516 1.837c-1.039-1.059-2.793-1.92-2.793-1.92s-1.606 1.402-3.941 1.38c-2.45-.02-3.928-1.381-3.928-1.381s-5.298 2.089-6.415 9.176c0 0-1.198 3.757 1.576 9.372h17.554s1.247-2.488 1.467-4.003h8.731c2.145-3.73 1.284-7.319 1.284-7.319zM20.05 30.857H3.73c-2.131-4.646-1.21-8.04-1.21-8.04.52-3.555 2.511-6.554 5.359-8.077 1.123.773 2.513 1.235 4.011 1.235s2.888-.462 4.035-1.251l-.024.016c2.848 1.523 4.838 4.522 5.359 8.077-.006 0 .879 4.178-1.211 8.04zm10.235-4.003h-7.949c.305-2.019-.099-4.227-.099-4.227-.36-2.496-1.386-4.746-2.89-6.484a7.21 7.21 0 0 1 1.669-1.3l.036-.019c.863.58 1.926.925 3.07.925s2.207-.345 3.09-.938l-.02.013c2.108 1.157 3.588 3.393 3.972 6.043 0 0 .727 2.833-.879 5.987z"/></symbol><symbol id="prog-hat" viewBox="0 0 32 32"><path d="M23.048 8.572a.404.404 0 0 1-.304-.144v-.001a.529.529 0 0 1-.125-.343v-.005c-.033-1.889-.712-3.689-1.888-5.011s-2.757-2.063-4.404-2.063-3.228.741-4.404 2.063c-1.178 1.322-1.855 3.122-1.888 5.011a.532.532 0 0 1-.125.348.406.406 0 0 1-.304.145.405.405 0 0 1-.303-.144l-.001-.001a.528.528 0 0 1-.127-.345v-.004c.029-2.154.796-4.209 2.134-5.722C12.649.847 14.45-.002 16.327-.002c1.879 0 3.681.847 5.02 2.359 1.338 1.51 2.104 3.566 2.132 5.72a.532.532 0 0 1-.125.348.404.404 0 0 1-.303.145z"/><path d="M24.302 19.732a.4.4 0 0 1-.304-.143v-.001a.525.525 0 0 1-.128-.346v-.001c0-.132.044-.256.124-.351a.404.404 0 0 1 .303-.146c1.637-.012 3.205-.759 4.366-2.083 1.162-1.322 1.824-3.116 1.846-4.995-.017-1.896-.687-3.707-1.866-5.037s-2.769-2.068-4.422-2.054c-.635 0-1.266.106-1.873.32a.378.378 0 0 1-.326-.042l.002.001a.486.486 0 0 1-.207-.286l-.001-.003a.545.545 0 0 1 .031-.375l-.001.003a.457.457 0 0 1 .25-.243 6.264 6.264 0 0 1 2.118-.361h.008c1.882-.014 3.69.828 5.03 2.342s2.102 3.578 2.118 5.734c-.023 2.138-.774 4.179-2.095 5.687-1.32 1.508-3.104 2.362-4.966 2.377h-.005zm-15.956 0h-.004c-1.864-.015-3.647-.869-4.966-2.377-1.322-1.508-2.075-3.549-2.095-5.687.017-2.157.778-4.22 2.118-5.734s3.149-2.356 5.03-2.342a6.383 6.383 0 0 1 2.125.362.42.42 0 0 1 .15.09.48.48 0 0 1 .106.146l.001.003a.545.545 0 0 1-.048.552l.001-.002a.437.437 0 0 1-.13.12l-.002.001a.39.39 0 0 1-.333.031l.003.001a5.518 5.518 0 0 0-1.867-.319h-.007c-1.651-.013-3.242.724-4.421 2.054s-1.851 3.141-1.866 5.037c.02 1.879.684 3.672 1.844 4.995 1.162 1.324 2.73 2.071 4.367 2.083.06.001.116.015.166.039l-.002-.001a.45.45 0 0 1 .14.108.555.555 0 0 1-.005.698l.001-.001a.43.43 0 0 1-.138.105l-.003.001a.38.38 0 0 1-.164.037z"/><path d="M24.302 32H8.346a.404.404 0 0 1-.304-.144l-.001-.001a.529.529 0 0 1-.125-.343V19.238c0-.131.045-.256.125-.349a.403.403 0 0 1 .304-.143c.114 0 .223.051.303.143a.53.53 0 0 1 .125.349v11.773h15.098V19.238c0-.131.045-.256.125-.349a.403.403 0 0 1 .304-.143c.114 0 .223.051.303.143a.533.533 0 0 1 .127.349v12.268a.528.528 0 0 1-.127.348.404.404 0 0 1-.303.145z"/><path d="M27.293 27.222H11.338a.404.404 0 0 1-.304-.144l-.001-.001a.529.529 0 0 1-.125-.343v-.006c0-.131.045-.256.125-.348a.406.406 0 0 1 .304-.145h15.955a.4.4 0 0 1 .305.145.528.528 0 0 1 .125.348.534.534 0 0 1-.125.349.406.406 0 0 1-.304.145z"/></symbol><symbol id="prog-clock" viewBox="0 0 32 32"><path d="M16 0C7.177 0 0 7.177 0 16c0 8.822 7.177 16 16 16 8.822 0 16-7.178 16-16 0-8.823-7.178-16-16-16zm0 30.934c-8.234 0-14.934-6.7-14.934-14.934S7.766 1.066 16 1.066 30.934 7.766 30.934 16 24.234 30.934 16 30.934z"/><path d="M16.534 13.878V8.469a.534.534 0 1 0-1.068 0v5.409a2.14 2.14 0 0 0-1.52 1.51l-.003.015h-3.809l-.026-.001a.534.534 0 1 0 0 1.068l.027-.001h-.001 3.809a2.13 2.13 0 0 0 2.057 1.6 2.134 2.134 0 0 0 2.134-2.132c0-.992-.684-1.819-1.6-2.058zM16 17.002a1.067 1.067 0 0 1 .002-2.136h.001a1.067 1.067 0 0 1-.002 2.136H16zm0-11.734a.533.533 0 0 0 .534-.532v-.534a.534.534 0 1 0-1.068 0v.534c0 .294.239.532.534.532zm0 21.334a.534.534 0 0 0-.534.534v.532a.534.534 0 1 0 1.068 0v-.533a.532.532 0 0 0-.532-.532h-.001zm11.734-11.2H27.2l-.026-.001a.534.534 0 1 0 0 1.068l.027-.001H27.2h.534l.026.001a.534.534 0 1 0 0-1.068l-.027.001h.001zm-22.934 0h-.534a.533.533 0 0 0 0 1.066H4.8l.026.001a.534.534 0 1 0 0-1.068l-.027.001H4.8zm19.119-8.141-.378.378a.535.535 0 0 0 .756.754l.376-.378a.533.533 0 0 0-.754-.754zM7.703 23.478l-.376.378a.533.533 0 0 0 .754.754l.378-.378a.535.535 0 0 0-.756-.754zm16.594 0a.534.534 0 1 0-.756.756l.378.376a.531.531 0 0 0 .756 0 .53.53 0 0 0 0-.756l-.378-.376zM8.081 7.261a.534.534 0 1 0-.756.756l.378.376a.53.53 0 0 0 .756 0 .53.53 0 0 0 0-.756l-.378-.376z"/></symbol><symbol id="prog-chat" viewBox="0 0 32 32"><path d="M24.621 14.939c0-6.705-6.161-11.099-12.311-11.099C6.135 3.84 0 8.256 0 14.939c0 2.529.965 5.002 2.719 6.963a.331.331 0 0 1 .066.3l.001-.002c-.55 2.314-1.855 4.403-2.39 5.197a.882.882 0 0 0-.069.854l-.002-.006c.12.271.357.438.621.438h.018c2.619-.074 5.654-.922 7.529-3.039a.244.244 0 0 1 .254-.077h-.002c1.152.312 2.353.472 3.566.472 6.173 0 12.311-4.415 12.311-11.1zM8.96 24.52a1.097 1.097 0 0 0-1.124.355l-.001.002c-1.876 2.116-4.94 2.598-6.39 2.705.663-1.05 1.74-2.976 2.245-5.1a1.514 1.514 0 0 0-.319-1.353l.002.002C1.779 19.349.937 17.208.937 14.938c0-5.527 5.102-10.022 11.373-10.022 6.272 0 11.373 4.495 11.373 10.022S18.582 24.962 12.31 24.962h-.016c-1.186 0-2.334-.162-3.423-.464l.09.021z"/><path d="M27.635 23.875C30.368 22.29 32 19.59 32 16.651c0-4.154-3.273-7.703-7.782-8.439-.256-.042-.494.163-.53.456-.037.294.141.567.397.609 4.045.659 6.979 3.761 6.979 7.374 0 2.525-1.44 4.867-3.85 6.264-.47.273-.721.873-.611 1.462.228 1.233.714 2.373 1.103 3.146-2.767-.529-3.817-2.052-4.148-2.711-.205-.408-.589-.66-1.001-.66h-.038c-.52 0-1.041-.041-1.546-.123-.256-.041-.494.164-.53.458s.142.566.399.607c.55.09 1.114.134 1.677.134h.038a.21.21 0 0 1 .188.122c1.27 2.524 4.188 3.168 5.385 3.328.264.035.515-.102.655-.362a.86.86 0 0 0-.006-.839l.002.004c-.361-.644-1.004-1.933-1.262-3.328a.265.265 0 0 1 .115-.277l.001-.001zM5.016 13.015c-.896 0-1.626.837-1.626 1.865s.73 1.864 1.626 1.864c.896 0 1.626-.836 1.626-1.864s-.73-1.865-1.626-1.865zm0 2.653c-.379 0-.687-.355-.687-.788 0-.435.307-.788.687-.788.379 0 .687.353.687.788s-.308.788-.687.788zm4.635-2.653c-.896 0-1.626.837-1.626 1.865s.73 1.864 1.626 1.864c.896 0 1.624-.836 1.624-1.864s-.73-1.865-1.626-1.865zm0 2.653c-.379 0-.687-.355-.687-.788 0-.435.307-.788.687-.788.378 0 .686.353.686.788s-.307.788-.686.788zm4.634-2.653c-.896 0-1.624.837-1.624 1.865s.73 1.864 1.626 1.864c.896 0 1.624-.836 1.624-1.864s-.73-1.865-1.626-1.865zm0 2.653c-.379 0-.686-.355-.686-.788 0-.435.307-.788.686-.788s.687.353.687.788c0 .435-.307.788-.687.788zm4.635-2.653c-.896 0-1.626.837-1.626 1.865s.73 1.864 1.626 1.864c.896 0 1.626-.836 1.626-1.864s-.73-1.865-1.626-1.865zm0 2.653c-.379 0-.687-.355-.687-.788 0-.435.308-.788.687-.788s.687.353.687.788c0 .435-.308.788-.687.788z"/></symbol><symbol id="star-full" viewBox="0 0 34 32"><path fill="#ab816c" style="fill:var(--color3,#ab816c)" d="M15.591 2.789c.505-1.551 2.7-1.551 3.203 0l2.511 7.727c.227.68.858 1.162 1.601 1.162h8.123c1.634 0 2.311 2.088.99 3.048l-6.572 4.775a1.683 1.683 0 0 0-.608 1.895l-.003-.012 2.509 7.725c.505 1.553-1.272 2.843-2.592 1.883l-6.572-4.775c-.274-.201-.618-.321-.989-.321s-.716.12-.994.325l.005-.003-6.573 4.775c-1.319.96-3.096-.33-2.592-1.883l2.511-7.725a1.682 1.682 0 0 0-.607-1.88l-.005-.003-6.573-4.775c-1.319-.96-.64-3.048.99-3.048h8.125a1.687 1.687 0 0 0 1.597-1.15l.003-.012L15.59 2.79z"/></symbol><symbol id="star-empty" viewBox="0 0 34 32"><path fill="none" stroke="#ab816c" style="stroke:var(--color3,#ab816c)" stroke-width="1.684" d="M15.901 3.048a.844.844 0 0 1 1.6-.006l.002.006 2.509 7.727a2.532 2.532 0 0 0 2.403 1.747h8.125a.842.842 0 0 1 .497 1.521l-.002.002-6.572 4.775a2.527 2.527 0 0 0-.912 2.842l-.005-.018 2.509 7.727a.842.842 0 0 1-1.3.94l.002.002-6.572-4.775c-.411-.301-.927-.482-1.485-.482s-1.074.181-1.492.487l.007-.005-6.572 4.775a.842.842 0 0 1-1.295-.949l-.002.006 2.509-7.725a2.524 2.524 0 0 0-.909-2.82l-.007-.005-6.572-4.773a.841.841 0 0 1 .495-1.522h8.123a2.527 2.527 0 0 0 2.398-1.729l.005-.018 2.509-7.725z"/></symbol><symbol id="phone" viewBox="0 0 32 32"><path d="M29.43 20.47h-.033c-2.027 0-3.978-.324-5.805-.924l.131.037c-.894-.295-1.991-.025-2.535.519l-3.599 2.649c-4.172-2.171-6.742-4.677-8.938-8.711l2.634-3.414a2.48 2.48 0 0 0 .638-2.555c-.577-1.653-.911-3.559-.911-5.543v-.026.001C11.01 1.122 9.855 0 8.442 0H2.566C1.151 0-.001 1.122-.001 2.503c0 15.815 13.201 28.682 29.43 28.682 1.415 0 2.567-1.122 2.567-2.503v-5.711c0-1.378-1.152-2.501-2.567-2.501z"/></symbol><symbol id="location" viewBox="0 0 23 32"><path d="M11.733 0c6.47 0 11.733 5.131 11.733 11.435 0 2.496-.811 4.866-2.34 6.854l-8.67 11.381c-.021.026-.055.036-.079.062a.886.886 0 0 1-1.364-.062l-.002-.002c-2.498-3.245-7.074-9.308-8.832-11.595l-.004-.004-.011-.013a11.071 11.071 0 0 1-2.165-6.605v-.017.001C-.001 5.131 5.262 0 11.732 0zm0 17.604c3.484 0 6.33-2.773 6.33-6.17 0-3.394-2.846-6.17-6.33-6.17s-6.33 2.773-6.33 6.17c0 3.394 2.846 6.17 6.33 6.17z"/></symbol><symbol id="menu" viewBox="0 0 60 32"><path d="M2 0h56a2 2 0 1 1 0 4H2a2 2 0 1 1 0-4zM2 14h56a2 2 0 1 1 0 4H2a2 2 0 1 1 0-4zM2 28h56a2 2 0 1 1 0 4H2a2 2 0 1 1 0-4z"/></symbol><symbol id="close" viewBox="0 0 32 32"><path d="M30.354 32a1.646 1.646 0 0 0 1.162-2.81L2.812.481A1.647 1.647 0 0 0 .483 2.81l28.708 28.708c.322.32.743.484 1.164.484z"/><path d="M1.644 32c.421 0 .843-.16 1.164-.484L31.517 2.81A1.647 1.647 0 0 0 29.188.481L.479 29.19a1.645 1.645 0 0 0 1.164 2.809z"/></symbol></defs></svg>