<?xml version="1.0" standalone="no"?>
<!DOCTYPE svg PUBLIC "-//W3C//DTD SVG 20010904//EN"
 "http://www.w3.org/TR/2001/REC-SVG-20010904/DTD/svg10.dtd">
<svg version="1.0" xmlns="http://www.w3.org/2000/svg"
 width="303.000000pt" height="303.000000pt" viewBox="0 0 303.000000 303.000000"
 preserveAspectRatio="xMidYMid meet">
<metadata>
Created by potrace 1.14, written by Peter Selinger 2001-2017
</metadata>
<g transform="translate(0.000000,303.000000) scale(0.100000,-0.100000)"
fill="#000000" stroke="none">
<path d="M1506 2953 c-3 -3 -36 -7 -73 -9 -37 -2 -79 -6 -93 -9 -14 -3 -43 -7
-65 -11 -48 -6 -71 -11 -105 -19 -14 -4 -38 -8 -55 -9 -16 -1 -43 -11 -60 -22
-29 -19 -29 -19 -21 1 14 33 12 60 -4 59 -8 0 -34 -4 -56 -8 -36 -6 -41 -11
-41 -32 0 -28 -33 -94 -46 -94 -4 0 -5 -5 -1 -11 5 -8 -1 -10 -20 -7 -21 4
-30 1 -38 -16 -5 -11 -35 -41 -66 -66 -146 -116 -332 -326 -332 -375 0 -9 -12
-27 -27 -41 -14 -13 -34 -46 -43 -72 -10 -26 -24 -65 -33 -87 -12 -31 -44
-135 -52 -165 -1 -3 -7 -25 -14 -48 -7 -24 -19 -80 -27 -125 -7 -44 -18 -95
-23 -111 -6 -17 -12 -45 -14 -63 -3 -17 -9 -37 -13 -44 -15 -25 -14 -255 1
-299 10 -28 13 -66 9 -125 -3 -60 0 -94 10 -118 18 -43 83 -139 102 -150 19
-11 41 -55 48 -97 3 -19 13 -40 23 -48 10 -7 27 -21 38 -30 11 -9 44 -32 73
-51 34 -22 80 -68 128 -127 48 -61 88 -101 114 -114 22 -11 40 -24 40 -29 0
-5 33 -20 73 -33 210 -71 201 -68 323 -137 78 -45 162 -66 270 -70 38 -1 86
-6 105 -10 43 -9 84 -7 134 7 22 6 49 10 60 8 11 -2 41 4 67 14 26 10 49 16
51 14 2 -2 15 6 28 18 14 14 34 22 47 20 39 -6 148 61 335 203 64 50 135 103
157 118 22 16 43 39 46 52 4 17 21 30 60 45 54 22 62 32 45 59 -7 10 0 27 23
55 48 60 105 156 111 186 2 8 22 46 44 85 23 38 41 79 41 91 0 12 6 37 14 56
8 19 17 68 20 109 3 41 8 85 10 99 32 183 30 279 -6 440 -5 25 -11 54 -13 65
-6 29 -25 103 -40 155 -7 25 -16 62 -20 84 -5 28 -20 52 -54 86 -27 27 -51 61
-54 77 -18 92 -178 251 -398 397 -31 20 -62 48 -69 61 -14 25 -52 37 -84 25
-15 -5 -35 3 -76 30 -98 67 -179 102 -256 111 -40 5 -92 16 -116 25 -24 9 -52
17 -63 19 -59 11 -74 13 -79 8z"/>
</g>
</svg>
