<svg width="11" height="15" viewBox="0 0 11 15" fill="none" xmlns="http://www.w3.org/2000/svg">
<path d="M5.5 0C8.53262 0 11 2.40463 11 5.36011C11 6.52972 10.6209 7.64105 9.90282 8.57343L5.83903 13.9075C5.82887 13.9204 5.81336 13.9253 5.80208 13.9369C5.599 14.1488 5.30595 14.0955 5.16126 13.9075C3.99103 12.3857 1.84603 9.54375 1.02131 8.47173C1.02131 8.47173 1.02103 8.4709 1.02074 8.47035L1.01567 8.46376C0.351154 7.55391 0 6.48079 0 5.36011C0 2.40463 2.46738 0 5.5 0ZM5.5 8.25183C7.13279 8.25183 8.46718 6.95138 8.46718 5.36011C8.46718 3.76885 7.13279 2.4684 5.5 2.4684C3.86721 2.4684 2.53282 3.76885 2.53282 5.36011C2.53282 6.95138 3.86721 8.25183 5.5 8.25183Z" fill="black"/>
</svg>
