<svg width="13" height="13" viewBox="0 0 13 13" fill="none" xmlns="http://www.w3.org/2000/svg">
<path d="M11.9559 8.31555C11.1601 8.31555 10.3787 8.19424 9.63815 7.95575C9.2753 7.83513 8.82924 7.94578 8.60778 8.16745L7.14618 9.24277C5.45113 8.36095 4.40702 7.34369 3.51456 5.70412L4.58545 4.31676C4.86368 4.04597 4.96347 3.6504 4.84391 3.27925C4.59815 2.55377 4.4733 1.79256 4.4733 1.0166C4.47333 0.45604 4.00541 0 3.43027 0H1.04306C0.467929 0 0 0.45604 0 1.01656C0 7.44164 5.36336 12.6687 11.9559 12.6687C12.5311 12.6687 12.999 12.2127 12.999 11.6521V9.33208C12.999 8.77159 12.531 8.31555 11.9559 8.31555Z" fill="#2E2520"/>
</svg>
