<svg width="25" height="25" viewBox="0 0 25 25" fill="none" xmlns="http://www.w3.org/2000/svg">
<path d="M19.2347 11.6712C19.2347 6.43329 14.4221 3 9.61735 3C4.79342 3 0 6.44942 0 11.6712C0 13.6467 0.754152 15.5785 2.12359 17.1108C2.17598 17.1695 2.19605 17.2585 2.17593 17.3431C1.7458 19.1509 0.727052 20.7839 0.309034 21.4022C0.179004 21.5945 0.157617 21.8488 0.253272 22.066C0.346778 22.2784 0.531641 22.4084 0.738185 22.4084C0.742872 22.4084 0.747511 22.4084 0.752198 22.4083C2.79776 22.3497 5.16881 21.6874 6.63443 20.0342C6.68566 19.9764 6.75914 19.9536 6.83111 19.9732C7.7316 20.2183 8.66906 20.3425 9.61735 20.3425C14.4399 20.3423 19.2347 16.8943 19.2347 11.6712ZM7.00011 19.1555C6.6817 19.0688 6.35294 19.1733 6.12096 19.435C4.65528 21.0882 2.26197 21.4641 1.12901 21.5476C1.64654 20.728 2.48799 19.2227 2.88252 17.5643C2.97271 17.1853 2.87784 16.7811 2.63497 16.5092C1.39033 15.1166 0.732423 13.4436 0.732423 11.6712C0.732423 7.35323 4.71817 3.84028 9.61735 3.84028C14.5165 3.84028 18.5023 7.35318 18.5023 11.6712C18.5023 15.9892 14.5165 19.5021 9.61735 19.5021C8.72589 19.5021 7.84537 19.3854 7.00011 19.1555Z" fill="#674D40"/>
<path d="M21.5901 18.6521C23.7253 17.4142 25 15.3043 25 13.0081C25 9.76289 22.443 6.98999 18.92 6.41463C18.7201 6.38202 18.5344 6.54162 18.5059 6.77135C18.4774 7.00108 18.6166 7.21378 18.8169 7.2465C21.9753 7.76231 24.2676 10.1854 24.2676 13.0081C24.2676 14.9806 23.1432 16.8102 21.2597 17.9022C20.8935 18.1146 20.6973 18.584 20.7826 19.0439C20.9611 20.0066 21.3413 20.898 21.6453 21.5022C19.4827 21.0893 18.663 19.8988 18.4038 19.3835C18.2438 19.0654 17.9446 18.8683 17.6217 18.8683C17.6207 18.8683 17.6198 18.8683 17.6189 18.8683L17.592 18.8683C17.1859 18.8683 16.7793 18.836 16.3835 18.7722C16.1838 18.74 15.9981 18.9 15.9699 19.1298C15.9418 19.3596 16.0814 19.572 16.2817 19.6043C16.7111 19.6735 17.1519 19.7085 17.592 19.7085L17.6218 19.7085H17.6223C17.6836 19.7085 17.7399 19.7448 17.7694 19.8035C18.7612 21.7755 21.0413 22.279 21.9755 22.4039C22.1818 22.4315 22.3784 22.3233 22.4885 22.121C22.5983 21.9192 22.597 21.6693 22.4849 21.469C22.2035 20.9661 21.7013 19.9598 21.499 18.869C21.4828 18.7819 21.5203 18.6926 21.5901 18.6521Z" fill="#674D40"/>
<path d="M3.91887 10.1685C3.21901 10.1685 2.64966 10.8217 2.64966 11.6246C2.64966 12.4275 3.21901 13.0808 3.91887 13.0808C4.61874 13.0808 5.18809 12.4275 5.18809 11.6246C5.18809 10.8217 4.61874 10.1685 3.91887 10.1685ZM3.91887 12.2405C3.62287 12.2405 3.3821 11.9642 3.3821 11.6247C3.3821 11.2851 3.62292 11.0088 3.91887 11.0088C4.21483 11.0088 4.45565 11.2851 4.45565 11.6247C4.45565 11.9642 4.21483 12.2405 3.91887 12.2405Z" fill="#674D40"/>
<path d="M7.53955 10.1685C6.83971 10.1685 6.27039 10.8217 6.27039 11.6246C6.27039 12.4275 6.83971 13.0808 7.53955 13.0808C8.23939 13.0808 8.80872 12.4275 8.80872 11.6246C8.80872 10.8217 8.23939 10.1685 7.53955 10.1685ZM7.53955 12.2405C7.24356 12.2405 7.00279 11.9642 7.00279 11.6247C7.00279 11.2851 7.24361 11.0088 7.53955 11.0088C7.83549 11.0088 8.07631 11.2851 8.07631 11.6247C8.07631 11.9642 7.83554 12.2405 7.53955 12.2405Z" fill="#674D40"/>
<path d="M11.1603 10.1685C10.4605 10.1685 9.89111 10.8217 9.89111 11.6246C9.89111 12.4275 10.4605 13.0808 11.1603 13.0808C11.8602 13.0808 12.4295 12.4275 12.4295 11.6246C12.4295 10.8217 11.8602 10.1685 11.1603 10.1685ZM11.1603 12.2405C10.8643 12.2405 10.6236 11.9642 10.6236 11.6247C10.6236 11.2851 10.8644 11.0088 11.1603 11.0088C11.4563 11.0088 11.6971 11.2851 11.6971 11.6247C11.6971 11.9642 11.4563 12.2405 11.1603 12.2405Z" fill="#674D40"/>
<path d="M14.7811 10.1685C14.0812 10.1685 13.5119 10.8217 13.5119 11.6246C13.5119 12.4275 14.0812 13.0808 14.7811 13.0808C15.481 13.0808 16.0503 12.4275 16.0503 11.6246C16.0503 10.8217 15.481 10.1685 14.7811 10.1685ZM14.7811 12.2405C14.4851 12.2405 14.2443 11.9642 14.2443 11.6247C14.2443 11.2851 14.4851 11.0088 14.7811 11.0088C15.077 11.0088 15.3179 11.2851 15.3179 11.6247C15.3179 11.9642 15.077 12.2405 14.7811 12.2405Z" fill="#674D40"/>
</svg>
