<svg width="25" height="25" viewBox="0 0 25 25" fill="none" xmlns="http://www.w3.org/2000/svg">
<g clip-path="url(#clip0_6501_61)">
<path d="M9.28706 0C6.71419 0 4.61865 2.40413 4.61865 5.3559C4.61865 8.30767 6.71419 10.7118 9.28706 10.7118C11.8599 10.7118 13.9555 8.30767 13.9555 5.3559C13.9555 2.40413 11.8599 0 9.28706 0ZM9.28706 9.81367C7.13902 9.81367 5.39672 7.80932 5.39672 5.35042C5.39672 2.89153 7.14379 0.887173 9.28706 0.887173C11.4351 0.887173 13.1774 2.89153 13.1774 5.35042C13.1774 7.80932 11.4303 9.81367 9.28706 9.81367Z" fill="#674D40"/>
<path d="M18.8483 2.22314C16.9151 2.22314 15.3446 4.02491 15.3446 6.24289C15.3446 8.46086 16.9151 10.2626 18.8483 10.2626C20.7816 10.2626 22.352 8.46086 22.352 6.24289C22.352 4.02491 20.7816 2.22314 18.8483 2.22314ZM18.8483 9.37544C17.3447 9.37544 16.1227 7.97346 16.1227 6.24836C16.1227 4.52327 17.3447 3.12129 18.8483 3.12129C20.352 3.12129 21.574 4.52327 21.574 6.24836C21.574 7.97346 20.352 9.37544 18.8483 9.37544Z" fill="#674D40"/>
<path d="M25.1158 16.1555C24.7626 13.713 23.4403 11.6539 21.1873 10.575C21.1873 10.575 20.1896 11.4403 18.8483 11.4129C17.3828 11.38 16.5093 10.575 16.5093 10.575C16.5093 10.575 15.4209 11.0405 14.5426 12.0098C13.7311 11.1829 12.3612 10.5093 12.3612 10.5093C12.3612 10.5093 11.1058 11.6046 9.2823 11.5881C7.36816 11.5717 6.21298 10.5093 6.21298 10.5093C6.21298 10.5093 2.07441 12.1413 1.20087 17.6779C1.20087 17.6779 0.265278 20.6133 2.43242 24.9999H16.1465C16.1465 24.9999 17.1203 23.0558 17.2921 21.8729H24.1134C25.7889 18.9594 25.1158 16.1555 25.1158 16.1555ZM15.6644 24.1073H2.91454C1.24861 20.4764 1.9694 17.8258 1.9694 17.8258C2.37514 15.0492 3.93128 12.7053 6.1557 11.5169C8.06508 12.8039 10.5139 12.8039 12.4232 11.5169C14.6476 12.7053 16.2038 15.0492 16.6095 17.8258C16.6048 17.8258 17.2969 21.0897 15.6644 24.1073ZM23.6599 20.9802H17.4497C17.6883 19.403 17.3733 17.6779 17.3733 17.6779C17.0917 15.7283 16.2897 13.9704 15.1154 12.6122C15.5164 12.196 15.9603 11.851 16.4472 11.5827C17.9127 12.5465 19.7791 12.5465 21.2445 11.5827C22.8914 12.4863 24.0466 14.2332 24.3473 16.3033C24.3473 16.3033 24.9153 18.5158 23.6599 20.9802Z" fill="#674D40"/>
</g>
<defs>
<clipPath id="clip0_6501_61">
<rect width="25" height="25" fill="white"/>
</clipPath>
</defs>
</svg>
