<svg width="25" height="25" viewBox="0 0 25 25" fill="none" xmlns="http://www.w3.org/2000/svg">
<path d="M18.0056 6.69687C17.9166 6.69687 17.8312 6.65629 17.7682 6.58404C17.7052 6.51179 17.6698 6.4138 17.6698 6.31162C17.6438 4.83564 17.1144 3.43019 16.1953 2.39692C15.2763 1.36365 14.0407 0.784913 12.7539 0.784913C11.4671 0.784913 10.2316 1.36365 9.31254 2.39692C8.39347 3.43019 7.8641 4.83564 7.83806 6.31162C7.83806 6.4138 7.80268 6.51179 7.7397 6.58404C7.67673 6.65629 7.59131 6.69687 7.50225 6.69687C7.41319 6.69687 7.32777 6.65629 7.2648 6.58404C7.20182 6.51179 7.16644 6.4138 7.16644 6.31162C7.18919 4.62873 7.78787 3.0236 8.83326 1.84274C9.87864 0.661873 11.2869 0 12.7539 0C14.221 0 15.6292 0.661873 16.6746 1.84274C17.72 3.0236 18.3187 4.62873 18.3414 6.31162C18.3414 6.4138 18.3061 6.51179 18.2431 6.58404C18.1801 6.65629 18.0947 6.69687 18.0056 6.69687Z" fill="#674D40"/>
<path d="M18.9859 15.4156C18.8968 15.4162 18.8112 15.3762 18.7479 15.3043C18.6845 15.2325 18.6486 15.1348 18.6481 15.0326C18.6475 14.9304 18.6824 14.8322 18.745 14.7595C18.8076 14.6868 18.8928 14.6456 18.9819 14.645C20.2608 14.6364 21.4856 14.0523 22.3931 13.0185C23.3007 11.9847 23.8184 10.5836 23.835 9.11645C23.8223 7.63491 23.2979 6.21962 22.3769 5.18103C21.4559 4.14243 20.2135 3.56534 18.9221 3.57633C18.4263 3.57539 17.9332 3.65927 17.459 3.82521C17.3743 3.85344 17.2833 3.8423 17.2057 3.7942C17.1281 3.7461 17.0701 3.66489 17.0442 3.56813C17.0184 3.47138 17.0267 3.36683 17.0675 3.2771C17.1083 3.18737 17.1782 3.11965 17.2622 3.08858C17.8002 2.90025 18.3596 2.80494 18.9221 2.80579C20.3915 2.79502 21.8047 3.45336 22.8516 4.63641C23.8986 5.81946 24.4937 7.43062 24.5066 9.11645C24.4894 10.7861 23.9018 12.3814 22.8702 13.5593C21.8386 14.7373 20.4453 15.4038 18.9899 15.4156H18.9859Z" fill="#674D40"/>
<path d="M6.52067 15.4156H6.51664C5.06123 15.4038 3.66797 14.7373 2.63637 13.5593C1.60476 12.3814 1.0172 10.7861 1 9.11645C1.01286 7.43062 1.60803 5.81946 2.65494 4.63641C3.70186 3.45336 5.11503 2.79502 6.58447 2.80579C7.14694 2.80494 7.70639 2.90025 8.24437 3.08858C8.28712 3.10283 8.32697 3.12668 8.3616 3.15876C8.39624 3.19083 8.42497 3.23049 8.44613 3.27542C8.46729 3.32035 8.48045 3.36966 8.48485 3.42048C8.48925 3.4713 8.4848 3.52262 8.47175 3.57144C8.45871 3.62027 8.43733 3.66564 8.40887 3.7049C8.38041 3.74417 8.34542 3.77655 8.30595 3.80016C8.26649 3.82377 8.22332 3.83815 8.17896 3.84245C8.13461 3.84675 8.08995 3.84089 8.04759 3.82521C7.57338 3.65927 7.08025 3.57539 6.58447 3.57633C5.2931 3.56534 4.05064 4.14243 3.12964 5.18103C2.20864 6.21962 1.68429 7.63491 1.67161 9.11645C1.68822 10.5836 2.20593 11.9847 3.11344 13.0185C4.02096 14.0523 5.24582 14.6364 6.5247 14.645C6.5688 14.6453 6.61241 14.6556 6.65306 14.6752C6.6937 14.6949 6.73057 14.7235 6.76156 14.7595C6.79256 14.7955 6.81707 14.8381 6.8337 14.885C6.85033 14.9318 6.85876 14.982 6.85849 15.0326C6.85823 15.0832 6.84928 15.1332 6.83216 15.1799C6.81504 15.2265 6.79008 15.2688 6.75871 15.3043C6.72734 15.3399 6.69018 15.368 6.64933 15.3871C6.60849 15.4062 6.56477 15.4159 6.52067 15.4156Z" fill="#674D40"/>
<path d="M18.9858 24.9999H6.52062C6.43156 24.9999 6.34615 24.9593 6.28317 24.887C6.22019 24.8148 6.18481 24.7168 6.18481 24.6146V15.0308C6.18481 14.9286 6.22019 14.8306 6.28317 14.7583C6.34615 14.6861 6.43156 14.6455 6.52062 14.6455C6.60969 14.6455 6.6951 14.6861 6.75808 14.7583C6.82105 14.8306 6.85643 14.9286 6.85643 15.0308V24.2294H18.65V15.0308C18.65 14.9286 18.6854 14.8306 18.7484 14.7583C18.8114 14.6861 18.8968 14.6455 18.9858 14.6455C19.0749 14.6455 19.1603 14.6861 19.2233 14.7583C19.2863 14.8306 19.3216 14.9286 19.3216 15.0308V24.6146C19.3216 24.7168 19.2863 24.8148 19.2233 24.887C19.1603 24.9593 19.0749 24.9999 18.9858 24.9999Z" fill="#674D40"/>
<path d="M21.3231 21.2669H8.8579C8.76884 21.2669 8.68343 21.2263 8.62045 21.154C8.55747 21.0817 8.52209 20.9836 8.52209 20.8814C8.52209 20.7791 8.55747 20.6811 8.62045 20.6088C8.68343 20.5365 8.76884 20.4958 8.8579 20.4958H21.3231C21.4122 20.4958 21.4976 20.5365 21.5606 20.6088C21.6235 20.6811 21.6589 20.7791 21.6589 20.8814C21.6589 20.9836 21.6235 21.0817 21.5606 21.154C21.4976 21.2263 21.4122 21.2669 21.3231 21.2669Z" fill="#674D40"/>
</svg>
