<svg width="16" height="16" viewBox="0 0 16 16" fill="none" xmlns="http://www.w3.org/2000/svg">
<path d="M16 2.72037C15.405 3.01212 14.771 3.20551 14.11 3.29941C14.79 2.84556 15.309 2.13238 15.553 1.27275C14.919 1.6953 14.219 1.99377 13.473 2.16032C12.871 1.44379 12.013 1 11.077 1C9.261 1 7.799 2.64771 7.799 4.66765C7.799 4.95829 7.821 5.23776 7.875 5.5038C5.148 5.35513 2.735 3.8941 1.114 1.66847C0.831 2.21733 0.665 2.84556 0.665 3.52186C0.665 4.79174 1.25 5.91741 2.122 6.56911C1.595 6.55793 1.078 6.3869 0.64 6.1175C0.64 6.12868 0.64 6.14321 0.64 6.15774C0.64 7.93959 1.777 9.41962 3.268 9.76056C3.001 9.84217 2.71 9.88129 2.408 9.88129C2.198 9.88129 1.986 9.86788 1.787 9.81869C2.212 11.2708 3.418 12.3383 4.852 12.373C3.736 13.3489 2.319 13.9368 0.785 13.9368C0.516 13.9368 0.258 13.9234 0 13.8865C1.453 14.934 3.175 15.532 5.032 15.532C11.068 15.532 14.368 9.94277 14.368 5.09803C14.368 4.93594 14.363 4.77944 14.356 4.62406C15.007 4.10761 15.554 3.46262 16 2.72037Z" fill="#2E2520"/>
</svg>
