<svg width="16" height="16" viewBox="0 0 16 16" fill="none" xmlns="http://www.w3.org/2000/svg">
<path d="M8.15778 16C8.1048 16 8.05182 16 7.99847 15.9998C6.74428 16.0028 5.58542 15.9709 4.45842 15.9023C3.42518 15.8395 2.48203 15.4824 1.73078 14.8699C1.0059 14.2788 0.510884 13.4796 0.259531 12.4947C0.0407731 11.6373 0.0291759 10.7956 0.0180671 9.98155C0.0100101 9.39744 0.00170905 8.7053 0 8.00144C0.00170905 7.29465 0.0100101 6.60251 0.0180671 6.0184C0.0291759 5.20444 0.0407731 4.36276 0.259531 3.50521C0.510884 2.52035 1.0059 1.72115 1.73078 1.13009C2.48203 0.517535 3.42518 0.160478 4.45854 0.0976116C5.58554 0.02913 6.74464 -0.00285251 8.00153 0.000199254C9.25609 -0.0024863 10.4146 0.02913 11.5416 0.0976116C12.5748 0.160478 13.518 0.517535 14.2692 1.13009C14.9942 1.72115 15.4891 2.52035 15.7405 3.50521C15.9592 4.36264 15.9708 5.20444 15.9819 6.0184C15.99 6.60251 15.9984 7.29465 16 7.99851V8.00144C15.9984 8.7053 15.99 9.39744 15.9819 9.98155C15.9708 10.7955 15.9593 11.6372 15.7405 12.4947C15.4891 13.4796 14.9942 14.2788 14.2692 14.8699C13.518 15.4824 12.5748 15.8395 11.5416 15.9023C10.4623 15.968 9.35363 16 8.15778 16ZM7.99847 14.7498C9.23229 14.7527 10.3651 14.7216 11.4656 14.6547C12.2469 14.6072 12.9243 14.3536 13.4793 13.9011C13.9922 13.4828 14.3455 12.9056 14.5292 12.1857C14.7114 11.4719 14.7219 10.7056 14.732 9.96446C14.7399 9.38426 14.7482 8.697 14.75 7.99998C14.7482 7.30283 14.7399 6.6157 14.732 6.03549C14.7219 5.2944 14.7114 4.52804 14.5292 3.81418C14.3455 3.0942 13.9922 2.51705 13.4793 2.09872C12.9243 1.64632 12.2469 1.39278 11.4656 1.3453C10.3651 1.27828 9.23229 1.2474 8.0014 1.25008C6.76784 1.24715 5.63486 1.27828 4.53435 1.3453C3.75307 1.39278 3.07568 1.64632 2.52073 2.09872C2.00777 2.51705 1.65448 3.0942 1.47076 3.81418C1.28862 4.52804 1.27812 5.29428 1.26799 6.03549C1.26006 6.61619 1.25176 7.30381 1.25005 8.00144C1.25176 8.69602 1.26006 9.38377 1.26799 9.96446C1.27812 10.7056 1.28862 11.4719 1.47076 12.1857C1.65448 12.9056 2.00777 13.4828 2.52073 13.9011C3.07568 14.3535 3.75307 14.6071 4.53435 14.6545C5.63486 14.7216 6.76808 14.7528 7.99847 14.7498ZM7.96869 11.9062C5.8148 11.9062 4.06229 10.1539 4.06229 7.99998C4.06229 5.84604 5.8148 4.09372 7.96869 4.09372C10.1227 4.09372 11.8751 5.84604 11.8751 7.99998C11.8751 10.1539 10.1227 11.9062 7.96869 11.9062ZM7.96869 5.34372C6.50403 5.34372 5.31234 6.53537 5.31234 7.99998C5.31234 9.46458 6.50403 10.6562 7.96869 10.6562C9.43347 10.6562 10.625 9.46458 10.625 7.99998C10.625 6.53537 9.43347 5.34372 7.96869 5.34372ZM12.3126 2.84371C11.7949 2.84371 11.3751 3.26339 11.3751 3.78122C11.3751 4.29904 11.7949 4.71872 12.3126 4.71872C12.8304 4.71872 13.2501 4.29904 13.2501 3.78122C13.2501 3.26339 12.8304 2.84371 12.3126 2.84371Z" fill="#2E2520"/>
</svg>
