<svg width="16" height="16" viewBox="0 0 16 16" fill="none" xmlns="http://www.w3.org/2000/svg">
<path d="M11.2561 0.00332907L9.44759 0C7.41579 0 6.10275 1.54552 6.10275 3.93762V5.75313H4.28437C4.12724 5.75313 4 5.89927 4 6.07954V8.71001C4 8.89028 4.12739 9.03625 4.28437 9.03625H6.10275V15.6738C6.10275 15.854 6.22999 16 6.38712 16H8.75959C8.91672 16 9.04396 15.8539 9.04396 15.6738V9.03625H11.1701C11.3272 9.03625 11.4544 8.89028 11.4544 8.71001L11.4553 6.07954C11.4553 5.99299 11.4253 5.91009 11.372 5.84884C11.3188 5.78758 11.2462 5.75313 11.1708 5.75313H9.04396V4.2141C9.04396 3.47438 9.19761 3.09886 10.0375 3.09886L11.2558 3.09836C11.4128 3.09836 11.54 2.95222 11.54 2.77211V0.329578C11.54 0.149642 11.4129 0.00366197 11.2561 0.00332907Z" fill="#2E2520"/>
</svg>
