<svg width="20" height="19" viewBox="0 0 20 19" fill="none" xmlns="http://www.w3.org/2000/svg">
<path d="M9.25732 1.6563C9.55667 0.734991 10.8601 0.734989 11.1594 1.6563L12.65 6.24369C12.7838 6.65571 13.1678 6.93467 13.601 6.93467H18.4245C19.3932 6.93467 19.796 8.17429 19.0123 8.74369L15.11 11.5788C14.7595 11.8335 14.6129 12.2849 14.7467 12.6969L16.2373 17.2843C16.5366 18.2056 15.4821 18.9717 14.6984 18.4023L10.7962 15.5671C10.4457 15.3125 9.97108 15.3125 9.62059 15.5671L5.71832 18.4023C4.93461 18.9717 3.88013 18.2056 4.17948 17.2843L5.67001 12.6969C5.80389 12.2849 5.65723 11.8335 5.30674 11.5789L1.40448 8.74369C0.620764 8.17429 1.02354 6.93467 1.99226 6.93467H6.81573C7.24895 6.93467 7.63291 6.65571 7.76678 6.24369L9.25732 1.6563Z" fill="#AB816C"/>
</svg>
