<svg width="20" height="19" viewBox="0 0 20 19" fill="none" xmlns="http://www.w3.org/2000/svg">
<path d="M9.44122 1.81081C9.5909 1.35015 10.2426 1.35016 10.3923 1.81081L11.8828 6.3982C12.0836 7.01623 12.6596 7.43467 13.3094 7.43467H18.1329C18.6172 7.43467 18.8186 8.05448 18.4268 8.33918L14.5245 11.1743C13.9988 11.5563 13.7788 12.2334 13.9796 12.8514L15.4701 17.4388C15.6198 17.8994 15.0925 18.2825 14.7007 17.9978L10.7984 15.1626C10.2727 14.7807 9.5608 14.7807 9.03507 15.1626L5.13281 17.9978C4.74095 18.2825 4.21371 17.8994 4.36338 17.4388L5.85392 12.8514C6.05473 12.2334 5.83474 11.5563 5.30901 11.1743L1.40674 8.33918C1.01488 8.05448 1.21628 7.43467 1.70064 7.43467H6.5241C7.17394 7.43467 7.74988 7.01623 7.95069 6.3982L9.44122 1.81081Z" stroke="#AB816C"/>
</svg>
